<svg width="81" height="81" viewBox="0 0 81 81" fill="none" xmlns="http://www.w3.org/2000/svg">
<g clip-path="url(#clip0_211_4)">
<path d="M40.5 1.6875C18.1237 1.6875 0 19.5075 0 41.4855C0 59.0726 11.6032 73.9867 27.6919 79.245C29.7169 79.6196 30.4594 78.3878 30.4594 77.3314C30.4594 76.3864 30.4256 73.8821 30.4087 70.5645C19.143 72.9641 16.767 65.2253 16.767 65.2253C14.9242 60.6319 12.2614 59.4034 12.2614 59.4034C8.59275 56.9362 12.5449 56.9869 12.5449 56.9869C16.6117 57.2636 18.7481 61.0875 18.7481 61.0875C22.3594 67.1726 28.2285 65.4142 30.5437 64.3984C30.9082 61.8232 31.9511 60.0716 33.1087 59.076C24.1144 58.0804 14.661 54.6581 14.661 39.4099C14.661 35.0663 16.2304 31.5157 18.8291 28.7314C18.3735 27.7256 17.0066 23.679 19.1835 18.198C19.1835 18.198 22.5754 17.1315 30.321 22.2784C33.561 21.3941 37.0035 20.9554 40.446 20.9351C43.8885 20.9554 47.331 21.3941 50.571 22.2784C58.266 17.1315 61.6579 18.198 61.6579 18.198C63.8347 23.679 62.4679 27.7256 62.0629 28.7314C64.6447 31.5157 66.2141 35.0663 66.2141 39.4099C66.2141 54.6986 56.7472 58.0635 47.736 59.0422C49.1535 60.237 50.4697 62.6771 50.4697 66.4065C50.4697 71.7323 50.4191 76.0118 50.4191 77.3044C50.4191 78.3473 51.1279 79.5926 53.2035 79.1944C69.4069 73.9699 81 59.0456 81 41.4855C81 19.5075 62.8661 1.6875 40.5 1.6875V1.6875Z" fill="white"/>
</g>
<defs>
<clipPath id="clip0_211_4">
<rect width="81" height="81" fill="white"/>
</clipPath>
</defs>
</svg>
